<svg width="38" height="38" viewBox="0 0 38 38" fill="none" xmlns="http://www.w3.org/2000/svg">
<path fill-rule="evenodd" clip-rule="evenodd" d="M14.4253 36.517C14.4253 36.0673 14.4094 34.8773 14.4003 33.2969C9.26517 34.4404 8.1817 30.759 8.1817 30.759C7.34189 28.572 6.13148 27.9898 6.13148 27.9898C4.45527 26.815 6.25842 26.8394 6.25842 26.8394C8.11143 26.973 9.0861 28.7905 9.0861 28.7905C10.7328 31.6828 13.4064 30.8485 14.4593 30.3639C14.627 29.1403 15.1041 28.3059 15.6311 27.833C11.5318 27.3553 7.22176 25.7308 7.22176 18.4772C7.22176 16.4111 7.94143 14.7215 9.12237 13.3979C8.9331 12.9191 8.29843 10.9948 9.3037 8.38826C9.3037 8.38826 10.8541 7.87928 14.3799 10.3289C15.8521 9.9094 17.432 9.6979 19.0028 9.69093C20.5702 9.6979 22.149 9.9094 23.6246 10.3289C27.1481 7.87928 28.6963 8.38826 28.6963 8.38826C29.7038 10.9936 29.0703 12.918 28.8799 13.3979C30.0631 14.7215 30.7771 16.4111 30.7771 18.4772C30.7771 25.7494 26.4602 27.3495 22.3473 27.8178C23.0114 28.4024 23.6008 29.5574 23.6008 31.3238C23.6008 33.8547 23.577 35.8965 23.577 36.517C23.577 37.0237 23.9102 37.6117 24.8475 37.4269C32.1768 34.9192 37.4615 27.8283 37.4615 19.4685C37.4615 9.01345 29.1949 0.538574 18.9994 0.538574C8.80503 0.538574 0.538452 9.01345 0.538452 19.4685C0.539585 27.8306 5.82888 34.9261 13.165 37.4292C14.0875 37.6024 14.4253 37.0178 14.4253 36.517Z" fill="white"/>
</svg>
